<svg width="748" height="800" viewBox="0 0 748 800" fill="none" xmlns="http://www.w3.org/2000/svg">
<path d="M748 140.397L689.694 606.62L374.772 800L54.6953 606.624L0 140.391L374.766 0L748 140.397ZM249.75 364.072C183.67 364.072 142.369 397.112 125.849 463.192C150.629 430.152 179.539 417.762 212.579 426.022C231.433 430.731 244.897 444.401 259.827 459.559C284.132 484.215 312.237 512.753 373.65 512.753C439.731 512.753 481.032 479.712 497.552 413.632C472.772 446.672 443.862 459.063 410.821 450.803C391.968 446.094 378.503 432.424 363.573 417.267C339.289 392.61 311.184 364.072 249.75 364.072ZM373.65 215.391C307.57 215.391 266.27 248.431 249.75 314.512C274.53 281.471 303.44 269.081 336.48 277.341C355.334 282.049 368.798 295.72 383.729 310.877C408.034 335.533 436.138 364.072 497.552 364.072C563.632 364.072 604.933 331.032 621.453 264.951C596.673 297.991 567.763 310.381 534.723 302.121C515.869 297.413 502.405 283.742 487.475 268.585C463.19 243.929 435.085 215.391 373.65 215.391Z" fill="url(#paint0_linear_9_6)" style=""/>
<defs>
<linearGradient id="paint0_linear_9_6" x1="-138.984" y1="399.894" x2="848.974" y2="399.894" gradientUnits="userSpaceOnUse">
<stop stop-color="#0EA5E9" style="stop-color:#0EA5E9;stop-color:color(display-p3 0.0549 0.6471 0.9137);stop-opacity:1;"/>
<stop offset="0.5" stop-color="#8B5CF6" style="stop-color:#8B5CF6;stop-color:color(display-p3 0.5451 0.3608 0.9647);stop-opacity:1;"/>
<stop offset="1" stop-color="#F43F5E" style="stop-color:#F43F5E;stop-color:color(display-p3 0.9569 0.2471 0.3686);stop-opacity:1;"/>
</linearGradient>
</defs>
</svg>
